<svg width="16" height="18" viewBox="0 0 16 18" fill="none" xmlns="http://www.w3.org/2000/svg">
<g clip-path="url(#clip0_91_62)">
<path d="M7.99963 1.12482C6.54147 1.12677 5.14353 1.77929 4.11246 2.93925C3.08138 4.09921 2.50136 5.67189 2.49963 7.31232C2.49963 12.6066 7.49963 16.6057 7.71252 16.7732C7.79672 16.8394 7.89694 16.8748 7.99963 16.8748C8.10233 16.8748 8.20255 16.8394 8.28674 16.7732C8.49963 16.6057 13.4996 12.6066 13.4996 7.31232C13.4979 5.67189 12.9179 4.09921 11.8868 2.93925C10.8557 1.77929 9.45779 1.12677 7.99963 1.12482ZM8 5.06253C8.39556 5.06253 8.78224 5.19449 9.11114 5.44172C9.44004 5.68895 9.69638 6.04036 9.84776 6.45149C9.99913 6.86262 10.0387 7.31502 9.96157 7.75148C9.8844 8.18794 9.69392 8.58885 9.41421 8.90352C9.13451 9.21819 8.77814 9.43248 8.39018 9.51929C8.00222 9.60611 7.60009 9.56155 7.23463 9.39126C6.86918 9.22096 6.55682 8.93257 6.33706 8.56256C6.1173 8.19255 6 7.75753 6 7.31253C5.99999 7.01705 6.05172 6.72447 6.15223 6.45148C6.25273 6.17849 6.40005 5.93045 6.58577 5.72152C6.77149 5.51258 6.99197 5.34685 7.23462 5.23378C7.47728 5.12071 7.73735 5.06252 8 5.06253Z" fill="#FF0000"/>
</g>
<defs>
<clipPath id="clip0_91_62">
<rect width="16" height="18" fill="white"/>
</clipPath>
</defs>
</svg>
